<svg width="25" height="25" viewBox="0 0 25 25" fill="none" xmlns="http://www.w3.org/2000/svg">
<rect width="25" height="25" rx="12.5" fill="#2CBB5D"/>
<g clip-path="url(#clip0_33_93)">
<path d="M15.25 11.125V9.74998C14.7917 9.74998 13.7338 9.66381 13.1848 10.7656L11.2515 14.6436C10.7863 15.5768 9.83342 16.1666 8.79025 16.1666H7V15.25H8.79025C9.48554 15.25 10.1208 14.8567 10.4311 14.2343L12.3643 10.3564C12.9858 9.10923 14.0483 8.83331 15.25 8.83331V7.45831L18 9.29165L15.25 11.125ZM10.9128 11.7318L11.4248 10.7042C10.8587 9.56802 10.096 8.83331 8.79025 8.83331H7V9.74998H8.79025C10.1066 9.74998 10.4604 10.8239 10.9128 11.7318ZM18 15.7083L15.25 13.875V15.25C13.5175 15.25 13.408 14.6826 12.7035 13.2691L12.1911 14.2962C12.659 15.2353 13.1536 16.1666 15.25 16.1666V17.5416L18 15.7083Z" fill="white"/>
</g>
<defs>
<clipPath id="clip0_33_93">
<rect width="11" height="11" fill="white" transform="translate(7 7)"/>
</clipPath>
</defs>
</svg>
